<svg width="514" height="668" viewBox="0 0 514 668" fill="none" xmlns="http://www.w3.org/2000/svg">
<g opacity="0.1" clip-path="url(#clip0_48_478)">
<path d="M514 0H0V668H514V0Z" fill="#181818"/>
<path d="M0 401.913H22.2733V399.687H44.5467V417.5H66.82V391.893H89.6644V416.387H111.938V391.893H134.211V401.913H156.484V405.253H178.758V384.1H201.031V408.593H223.304V389.667H245.578V393.007H268.422V401.913H290.696V387.44H312.969V395.233H335.242V388.553H357.516V419.727H379.789V411.933H402.062H424.336V405.253H447.18V413.047H469.453V411.933H491.727V380.76H514V395.233V669.113H491.727H469.453H447.18H424.336H402.062H379.789H357.516H335.242H312.969H290.696H268.422H245.578H223.304H201.031H178.758H156.484H134.211H111.938H89.6644H66.82H44.5467H22.2733H0V401.913Z" fill="#047148"/>
<path d="M0 537.74H22.2733V514.36H44.5467V515.473H66.82V538.853H89.6644V519.927H111.938V539.967H134.211V532.173H156.484H178.758V547.76H201.031H223.304V519.927H245.578V537.74H268.422V522.153H290.696V539.967H312.969V549.987H335.242V534.4H357.516V542.193H379.789V515.473H402.062V548.873H424.336V545.533H447.18V543.307H469.453V547.76H491.727V541.08H514V535.513V669.113H491.727H469.453H447.18H424.336H402.062H379.789H357.516H335.242H312.969H290.696H268.422H245.578H223.304H201.031H178.758H156.484H134.211H111.938H89.6644H66.82H44.5467H22.2733H0V537.74Z" fill="#0A472E"/>
<path d="M0 607.88H22.2733V617.9H44.5467V590.067H66.82V610.107H89.6644V600.087H111.938V601.2H134.211V595.633H156.484V590.067H178.758V613.447H201.031V598.973H223.304V593.407H245.578V592.293H268.422V588.953H290.696V620.127H312.969V606.767H335.242V587.84H357.516V598.973H379.789V594.52H402.062V583.387H424.336V586.727H447.18V595.633H469.453V617.9H491.727V615.673H514V600.087V669.113H491.727H469.453H447.18H424.336H402.062H379.789H357.516H335.242H312.969H290.696H268.422H245.578H223.304H201.031H178.758H156.484H134.211H111.938H89.6644H66.82H44.5467H22.2733H0V607.88Z" fill="#0A3322"/>
</g>
<defs>
<clipPath id="clip0_48_478">
<rect width="514" height="668" fill="white"/>
</clipPath>
</defs>
</svg>
