<svg width="243" height="93" viewBox="0 0 243 93" fill="none" xmlns="http://www.w3.org/2000/svg">
<path d="M92.4 22.4974C92.4 13.2171 100.059 5.7002 109.5 5.7002C118.941 5.7002 126.6 13.2171 126.6 22.4974C126.6 33.1225 115.895 45.8585 111.424 50.7124C110.373 51.8524 108.618 51.8524 107.567 50.7124C103.096 45.8585 92.3911 33.1225 92.3911 22.4974H92.4ZM109.5 28.5002C112.644 28.5002 115.2 25.9441 115.2 22.8002C115.2 19.6563 112.644 17.1002 109.5 17.1002C106.356 17.1002 103.8 19.6563 103.8 22.8002C103.8 25.9441 106.356 28.5002 109.5 28.5002Z" fill="#00CE79"/>
<path d="M7.584 82.168C6.352 82.168 5.248 81.968 4.272 81.568C3.296 81.168 2.512 80.576 1.92 79.792C1.344 79.008 1.04 78.064 1.008 76.96H5.376C5.44 77.584 5.656 78.064 6.024 78.4C6.392 78.72 6.872 78.88 7.464 78.88C8.072 78.88 8.552 78.744 8.904 78.472C9.256 78.184 9.432 77.792 9.432 77.296C9.432 76.88 9.288 76.536 9 76.264C8.728 75.992 8.384 75.768 7.968 75.592C7.568 75.416 6.992 75.216 6.24 74.992C5.152 74.656 4.264 74.32 3.576 73.984C2.888 73.648 2.296 73.152 1.8 72.496C1.304 71.84 1.056 70.984 1.056 69.928C1.056 68.36 1.624 67.136 2.76 66.256C3.896 65.36 5.376 64.912 7.2 64.912C9.056 64.912 10.552 65.36 11.688 66.256C12.824 67.136 13.432 68.368 13.512 69.952H9.072C9.04 69.408 8.84 68.984 8.472 68.68C8.104 68.36 7.632 68.2 7.056 68.2C6.56 68.2 6.16 68.336 5.856 68.608C5.552 68.864 5.4 69.24 5.4 69.736C5.4 70.28 5.656 70.704 6.168 71.008C6.68 71.312 7.48 71.64 8.568 71.992C9.656 72.36 10.536 72.712 11.208 73.048C11.896 73.384 12.488 73.872 12.984 74.512C13.48 75.152 13.728 75.976 13.728 76.984C13.728 77.944 13.48 78.816 12.984 79.6C12.504 80.384 11.8 81.008 10.872 81.472C9.944 81.936 8.848 82.168 7.584 82.168ZM24.6776 82L20.5976 76.384V82H16.4936V64.24H20.5976V74.056L24.6536 68.608H29.7176L24.1496 75.328L29.7656 82H24.6776ZM45.2496 68.608L36.8496 88.36H32.4336L35.5056 81.544L30.0576 68.608H34.6416L37.7376 76.984L40.8096 68.608H45.2496ZM51.0776 64.24V82H46.9736V64.24H51.0776ZM56.3557 67.216C55.6357 67.216 55.0437 67.008 54.5797 66.592C54.1317 66.16 53.9077 65.632 53.9077 65.008C53.9077 64.368 54.1317 63.84 54.5797 63.424C55.0437 62.992 55.6357 62.776 56.3557 62.776C57.0597 62.776 57.6357 62.992 58.0837 63.424C58.5477 63.84 58.7797 64.368 58.7797 65.008C58.7797 65.632 58.5477 66.16 58.0837 66.592C57.6357 67.008 57.0597 67.216 56.3557 67.216ZM58.3957 68.608V82H54.2917V68.608H58.3957ZM69.7699 68.464C71.3379 68.464 72.5859 68.976 73.5139 70C74.4579 71.008 74.9299 72.4 74.9299 74.176V82H70.8499V74.728C70.8499 73.832 70.6179 73.136 70.1539 72.64C69.6899 72.144 69.0659 71.896 68.2819 71.896C67.4979 71.896 66.8739 72.144 66.4099 72.64C65.9459 73.136 65.7139 73.832 65.7139 74.728V82H61.6099V68.608H65.7139V70.384C66.1299 69.792 66.6899 69.328 67.3939 68.992C68.0979 68.64 68.8899 68.464 69.7699 68.464ZM86.2058 82L82.1258 76.384V82H78.0218V64.24H82.1258V74.056L86.1818 68.608H91.2458L85.6778 75.328L91.2938 82H86.2058ZM104.736 65.152C106.512 65.152 108.064 65.504 109.392 66.208C110.72 66.912 111.744 67.904 112.464 69.184C113.2 70.448 113.568 71.912 113.568 73.576C113.568 75.224 113.2 76.688 112.464 77.968C111.744 79.248 110.712 80.24 109.368 80.944C108.04 81.648 106.496 82 104.736 82H98.4236V65.152H104.736ZM104.472 78.448C106.024 78.448 107.232 78.024 108.096 77.176C108.96 76.328 109.392 75.128 109.392 73.576C109.392 72.024 108.96 70.816 108.096 69.952C107.232 69.088 106.024 68.656 104.472 68.656H102.528V78.448H104.472ZM115.285 75.28C115.285 73.904 115.541 72.696 116.053 71.656C116.581 70.616 117.293 69.816 118.189 69.256C119.085 68.696 120.085 68.416 121.189 68.416C122.133 68.416 122.957 68.608 123.661 68.992C124.381 69.376 124.933 69.88 125.317 70.504V68.608H129.421V82H125.317V80.104C124.917 80.728 124.357 81.232 123.637 81.616C122.933 82 122.109 82.192 121.165 82.192C120.077 82.192 119.085 81.912 118.189 81.352C117.293 80.776 116.581 79.968 116.053 78.928C115.541 77.872 115.285 76.656 115.285 75.28ZM125.317 75.304C125.317 74.28 125.029 73.472 124.453 72.88C123.893 72.288 123.205 71.992 122.389 71.992C121.573 71.992 120.877 72.288 120.301 72.88C119.741 73.456 119.461 74.256 119.461 75.28C119.461 76.304 119.741 77.12 120.301 77.728C120.877 78.32 121.573 78.616 122.389 78.616C123.205 78.616 123.893 78.32 124.453 77.728C125.029 77.136 125.317 76.328 125.317 75.304ZM140.094 78.52V82H138.006C136.518 82 135.358 81.64 134.526 80.92C133.694 80.184 133.278 78.992 133.278 77.344V72.016H131.646V68.608H133.278V65.344H137.382V68.608H140.07V72.016H137.382V77.392C137.382 77.792 137.478 78.08 137.67 78.256C137.862 78.432 138.182 78.52 138.63 78.52H140.094ZM141.804 75.28C141.804 73.904 142.06 72.696 142.572 71.656C143.1 70.616 143.812 69.816 144.708 69.256C145.604 68.696 146.604 68.416 147.708 68.416C148.652 68.416 149.476 68.608 150.18 68.992C150.9 69.376 151.452 69.88 151.836 70.504V68.608H155.94V82H151.836V80.104C151.436 80.728 150.876 81.232 150.156 81.616C149.452 82 148.628 82.192 147.684 82.192C146.596 82.192 145.604 81.912 144.708 81.352C143.812 80.776 143.1 79.968 142.572 78.928C142.06 77.872 141.804 76.656 141.804 75.28ZM151.836 75.304C151.836 74.28 151.548 73.472 150.972 72.88C150.412 72.288 149.724 71.992 148.908 71.992C148.092 71.992 147.396 72.288 146.82 72.88C146.26 73.456 145.98 74.256 145.98 75.28C145.98 76.304 146.26 77.12 146.82 77.728C147.396 78.32 148.092 78.616 148.908 78.616C149.724 78.616 150.412 78.32 150.972 77.728C151.548 77.136 151.836 76.328 151.836 75.304ZM158.333 75.304C158.333 73.912 158.613 72.696 159.173 71.656C159.749 70.616 160.541 69.816 161.549 69.256C162.573 68.696 163.741 68.416 165.053 68.416C166.733 68.416 168.133 68.856 169.253 69.736C170.389 70.616 171.133 71.856 171.485 73.456H167.117C166.749 72.432 166.037 71.92 164.981 71.92C164.229 71.92 163.629 72.216 163.181 72.808C162.733 73.384 162.509 74.216 162.509 75.304C162.509 76.392 162.733 77.232 163.181 77.824C163.629 78.4 164.229 78.688 164.981 78.688C166.037 78.688 166.749 78.176 167.117 77.152H171.485C171.133 78.72 170.389 79.952 169.253 80.848C168.117 81.744 166.717 82.192 165.053 82.192C163.741 82.192 162.573 81.912 161.549 81.352C160.541 80.792 159.749 79.992 159.173 78.952C158.613 77.912 158.333 76.696 158.333 75.304ZM186.544 75.088C186.544 75.472 186.52 75.872 186.472 76.288H177.184C177.248 77.12 177.512 77.76 177.976 78.208C178.456 78.64 179.04 78.856 179.728 78.856C180.752 78.856 181.464 78.424 181.864 77.56H186.232C186.008 78.44 185.6 79.232 185.008 79.936C184.432 80.64 183.704 81.192 182.824 81.592C181.944 81.992 180.96 82.192 179.872 82.192C178.56 82.192 177.392 81.912 176.368 81.352C175.344 80.792 174.544 79.992 173.968 78.952C173.392 77.912 173.104 76.696 173.104 75.304C173.104 73.912 173.384 72.696 173.944 71.656C174.52 70.616 175.32 69.816 176.344 69.256C177.368 68.696 178.544 68.416 179.872 68.416C181.168 68.416 182.32 68.688 183.328 69.232C184.336 69.776 185.12 70.552 185.68 71.56C186.256 72.568 186.544 73.744 186.544 75.088ZM182.344 74.008C182.344 73.304 182.104 72.744 181.624 72.328C181.144 71.912 180.544 71.704 179.824 71.704C179.136 71.704 178.552 71.904 178.072 72.304C177.608 72.704 177.32 73.272 177.208 74.008H182.344ZM197.11 68.464C198.678 68.464 199.926 68.976 200.854 70C201.798 71.008 202.27 72.4 202.27 74.176V82H198.19V74.728C198.19 73.832 197.958 73.136 197.494 72.64C197.03 72.144 196.406 71.896 195.622 71.896C194.838 71.896 194.214 72.144 193.75 72.64C193.286 73.136 193.054 73.832 193.054 74.728V82H188.95V68.608H193.054V70.384C193.47 69.792 194.03 69.328 194.734 68.992C195.438 68.64 196.23 68.464 197.11 68.464ZM212.825 78.52V82H210.737C209.249 82 208.089 81.64 207.257 80.92C206.425 80.184 206.009 78.992 206.009 77.344V72.016H204.377V68.608H206.009V65.344H210.113V68.608H212.801V72.016H210.113V77.392C210.113 77.792 210.209 78.08 210.401 78.256C210.593 78.432 210.913 78.52 211.361 78.52H212.825ZM227.975 75.088C227.975 75.472 227.951 75.872 227.903 76.288H218.615C218.679 77.12 218.943 77.76 219.407 78.208C219.887 78.64 220.471 78.856 221.159 78.856C222.183 78.856 222.895 78.424 223.295 77.56H227.663C227.439 78.44 227.031 79.232 226.439 79.936C225.863 80.64 225.135 81.192 224.255 81.592C223.375 81.992 222.391 82.192 221.303 82.192C219.991 82.192 218.823 81.912 217.799 81.352C216.775 80.792 215.975 79.992 215.399 78.952C214.823 77.912 214.535 76.696 214.535 75.304C214.535 73.912 214.815 72.696 215.375 71.656C215.951 70.616 216.751 69.816 217.775 69.256C218.799 68.696 219.975 68.416 221.303 68.416C222.599 68.416 223.751 68.688 224.759 69.232C225.767 69.776 226.551 70.552 227.111 71.56C227.687 72.568 227.975 73.744 227.975 75.088ZM223.775 74.008C223.775 73.304 223.535 72.744 223.055 72.328C222.575 71.912 221.975 71.704 221.255 71.704C220.567 71.704 219.983 71.904 219.503 72.304C219.039 72.704 218.751 73.272 218.639 74.008H223.775ZM234.485 70.84C234.965 70.104 235.565 69.528 236.285 69.112C237.005 68.68 237.805 68.464 238.685 68.464V72.808H237.557C236.533 72.808 235.765 73.032 235.253 73.48C234.741 73.912 234.485 74.68 234.485 75.784V82H230.381V68.608H234.485V70.84Z" fill="#00FF96"/>
</svg>
