<svg width="514" height="737" viewBox="0 0 514 737" fill="none" xmlns="http://www.w3.org/2000/svg">
<g opacity="0.1" clip-path="url(#clip0_102_615)">
<path d="M514 0H0V737H514V0Z" fill="#181818"/>
<path d="M0 443.428H22.2733V440.972H44.5467V460.625H66.82V432.373H89.6644V459.397H111.938V432.373H134.211V443.428H156.484V447.113H178.758V423.775H201.031V450.798H223.304V429.917H245.578V433.602H268.422V443.428H290.696V427.46H312.969V436.058H335.242V428.688H357.516V463.082H379.789V454.483H402.062H424.336V447.113H447.18V455.712H469.453V454.483H491.727V420.09H514V436.058V738.228H491.727H469.453H447.18H424.336H402.062H379.789H357.516H335.242H312.969H290.696H268.422H245.578H223.304H201.031H178.758H156.484H134.211H111.938H89.6644H66.82H44.5467H22.2733H0V443.428Z" fill="#047148"/>
<path d="M0 593.285H22.2733V567.49H44.5467V568.718H66.82V594.513H89.6644V573.631H111.938V595.741H134.211V587.143H156.484H178.758V604.34H201.031H223.304V573.631H245.578V593.285H268.422V576.088H290.696V595.741H312.969V606.796H335.242V589.6H357.516V598.198H379.789V568.718H402.062V605.568H424.336V601.883H447.18V599.426H469.453V604.34H491.727V596.97H514V590.828V738.228H491.727H469.453H447.18H424.336H402.062H379.789H357.516H335.242H312.969H290.696H268.422H245.578H223.304H201.031H178.758H156.484H134.211H111.938H89.6644H66.82H44.5467H22.2733H0V593.285Z" fill="#0A472E"/>
<path d="M0 670.67H22.2733V681.725H44.5467V651.016H66.82V673.126H89.6644V662.071H111.938V663.3H134.211V657.158H156.484V651.016H178.758V676.811H201.031V660.843H223.304V654.701H245.578V653.473H268.422V649.788H290.696V684.181H312.969V669.441H335.242V648.56H357.516V660.843H379.789V655.93H402.062V643.646H424.336V647.331H447.18V657.158H469.453V681.725H491.727V679.268H514V662.071V738.228H491.727H469.453H447.18H424.336H402.062H379.789H357.516H335.242H312.969H290.696H268.422H245.578H223.304H201.031H178.758H156.484H134.211H111.938H89.6644H66.82H44.5467H22.2733H0V670.67Z" fill="#0A3322"/>
</g>
<defs>
<clipPath id="clip0_102_615">
<rect width="514" height="737" fill="white"/>
</clipPath>
</defs>
</svg>
